ffmpeg version 4.2.7-0ubuntu0.1 Copyright (c) 2000-2022 the FFmpeg developers
  built with gcc 9 (Ubuntu 9.4.0-1ubuntu1~20.04.1)
  configuration: --prefix=/usr --extra-version=0ubuntu0.1 --toolchain=hardened --libdir=/usr/lib/x86_64-linux-gnu --incdir=/usr/include/x86_64-linux-gnu --arch=amd64 --enable-gpl --disable-stripping --enable-avresample --disable-filter=resample --enable-avisynth --enable-gnutls --enable-ladspa --enable-libaom --enable-libass --enable-libbluray --enable-libbs2b --enable-libcaca --enable-libcdio --enable-libcodec2 --enable-libflite --enable-libfontconfig --enable-libfreetype --enable-libfribidi --enable-libgme --enable-libgsm --enable-libjack --enable-libmp3lame --enable-libmysofa --enable-libopenjpeg --enable-libopenmpt --enable-libopus --enable-libpulse --enable-librsvg --enable-librubberband --enable-libshine --enable-libsnappy --enable-libsoxr --enable-libspeex --enable-libssh --enable-libtheora --enable-libtwolame --enable-libvidstab --enable-libvorbis --enable-libvpx --enable-libwavpack --enable-libwebp --enable-libx265 --enable-libxml2 --enable-libxvid --enable-libzmq --enable-libzvbi --enable-lv2 --enable-omx --enable-openal --enable-opencl --enable-opengl --enable-sdl2 --enable-libdc1394 --enable-libdrm --enable-libiec61883 --enable-nvenc --enable-chromaprint --enable-frei0r --enable-libx264 --enable-shared
  libavutil      56. 31.100 / 56. 31.100
  libavcodec     58. 54.100 / 58. 54.100
  libavformat    58. 29.100 / 58. 29.100
  libavdevice    58.  8.100 / 58.  8.100
  libavfilter     7. 57.100 /  7. 57.100
  libavresample   4.  0.  0 /  4.  0.  0
  libswscale      5.  5.100 /  5.  5.100
  libswresample   3.  5.100 /  3.  5.100
  libpostproc    55.  5.100 / 55.  5.100
Routing option strict to both codec and muxer layer
[h264 @ 0x562712569880] Reinit context to 1920x1088, pix_fmt: yuv420p
Input #0, mov,mp4,m4a,3gp,3g2,mj2, from '/var/www/html/project/media/video/original/lv_0_20251021122734.mp4':
  Metadata:
    minor_version   : 512
    major_brand     : isom
    compatible_brands: isomiso2avc1mp41
    mdat_pos        : 40
    moov_pos        : 48717092
    Hw              : 1
    aigc_info       : {"aigc_label_type":0,"source_info":""}
    LvMetaInfo      : {"data":{"adsTemplateId":"","appVersion":"15.3.0","businessComponentId":"","businessTemplateId":"","capabilityName":"source_templateId,source_capabilityName","capability_extra":"{\"source_templateId\":\"[]\",\"source_capabilityName\":\"[]\"}","commercial_
    bitrate         : 12000000
    maxrate         : 30000000
    te_is_reencode  : 1
    encoder         : Lavf57.71.100
  Duration: 00:00:39.73, start: 0.000000, bitrate: 9818 kb/s
    Stream #0:0(und): Video: h264 (High), 1 reference frame (avc1 / 0x31637661), yuv420p(tv, bt709, left), 1920x1080 (1920x1088), 9616 kb/s, 30 fps, 30 tbr, 1000k tbn, 2000k tbc (default)
    Metadata:
      handler_name    : VideoHandler
    Stream #0:1(und): Audio: aac (LC) (mp4a / 0x6134706D), 44100 Hz, stereo, fltp, 200 kb/s (default)
    Metadata:
      handler_name    : SoundHandler
Input #1, png_pipe, from '/var/www/html/project/static/images/templates/logo.png':
  Duration: N/A, bitrate: N/A
    Stream #1:0: Video: png, 1 reference frame, rgba(pc), 1920x1080 [SAR 2835:2835 DAR 16:9], 25 tbr, 25 tbn, 25 tbc
[Parsed_scale_0 @ 0x562712677fc0] w:1920 h:1080 flags:'bilinear' interl:0
[Parsed_scale_2 @ 0x5627125bd880] w:1920 h:1080 flags:'bilinear' interl:0
Stream mapping:
  Stream #0:0 (h264) -> scale (graph 0)
  Stream #1:0 (png) -> scale (graph 0)
  overlay (graph 0) -> Stream #0:0 (libx264)
  Stream #0:1 -> #0:1 (aac (native) -> aac (native))
Press [q] to stop, [?] for help
[h264 @ 0x5627125b8ec0] Reinit context to 1920x1088, pix_fmt: yuv420p
[graph_1_in_0_1 @ 0x562712704a00] tb:1/44100 samplefmt:fltp samplerate:44100 chlayout:0x3
[Parsed_scale_0 @ 0x5627135d98c0] w:1920 h:1080 flags:'bilinear' interl:0
[Parsed_scale_2 @ 0x5627135dcec0] w:1920 h:1080 flags:'bilinear' interl:0
[graph 0 input from stream 0:0 @ 0x5627135df1c0] w:1920 h:1080 pixfmt:yuv420p tb:1/1000000 fr:30/1 sar:0/1 sws_param:flags=2
[graph 0 input from stream 1:0 @ 0x5627135e0180] w:1920 h:1080 pixfmt:rgba tb:1/25 fr:25/1 sar:2835/2835 sws_param:flags=2
[Parsed_scale_0 @ 0x5627135d98c0] w:1920 h:1080 fmt:yuv420p sar:0/1 -> w:1920 h:1080 fmt:yuv420p sar:0/1 flags:0x2
[Parsed_setsar_1 @ 0x5627135d8d80] w:1920 h:1080 sar:0/1 dar:16/9 -> sar:1/1 dar:16/9
[Parsed_scale_2 @ 0x5627135dcec0] w:1920 h:1080 fmt:rgba sar:2835/2835 -> w:1920 h:1080 fmt:yuva420p sar:1/1 flags:0x2
[Parsed_setsar_3 @ 0x5627135dd780] w:1920 h:1080 sar:1/1 dar:16/9 -> sar:1/1 dar:16/9
[Parsed_overlay_4 @ 0x5627135de380] main w:1920 h:1080 fmt:yuv420p overlay w:1920 h:1080 fmt:yuva420p
[Parsed_overlay_4 @ 0x5627135de380] [framesync @ 0x5627135de4e8] Selected 1/1000000 time base
[Parsed_overlay_4 @ 0x5627135de380] [framesync @ 0x5627135de4e8] Sync level 2
[libx264 @ 0x562712581f00] using SAR=1/1
[libx264 @ 0x562712581f00] using cpu capabilities: MMX2 SSE2Fast SSSE3 SSE4.2 AVX FMA3 BMI2 AVX2
[libx264 @ 0x562712581f00] profile High, level 4.0
[libx264 @ 0x562712581f00] 264 - core 155 r2917 0a84d98 - H.264/MPEG-4 AVC codec - Copyleft 2003-2018 - http://www.videolan.org/x264.html - options: cabac=1 ref=1 deblock=1:0:0 analyse=0x3:0x113 me=hex subme=2 psy=1 psy_rd=1.00:0.00 mixed_ref=0 me_range=16 chroma_me=1 trellis=0 8x8dct=1 cqm=0 deadzone=21,11 fast_pskip=1 chroma_qp_offset=0 threads=24 lookahead_threads=8 sliced_threads=0 nr=0 decimate=1 interlaced=0 bluray_compat=0 constrained_intra=0 bframes=3 b_pyramid=2 b_adapt=1 b_bias=0 direct=1 weightb=1 open_gop=0 weightp=1 keyint=250 keyint_min=25 scenecut=40 intra_refresh=0 rc_lookahead=10 rc=crf mbtree=1 crf=18.0 qcomp=0.60 qpmin=0 qpmax=69 qpstep=4 ip_ratio=1.40 aq=1:1.00
Output #0, mp4, to '/var/www/html/project/media/video/watermarks/lv_0_20251021122734.mp4':
  Metadata:
    minor_version   : 512
    major_brand     : isom
    compatible_brands: isomiso2avc1mp41
    mdat_pos        : 40
    moov_pos        : 48717092
    Hw              : 1
    aigc_info       : {"aigc_label_type":0,"source_info":""}
    LvMetaInfo      : {"data":{"adsTemplateId":"","appVersion":"15.3.0","businessComponentId":"","businessTemplateId":"","capabilityName":"source_templateId,source_capabilityName","capability_extra":"{\"source_templateId\":\"[]\",\"source_capabilityName\":\"[]\"}","commercial_
    bitrate         : 12000000
    maxrate         : 30000000
    te_is_reencode  : 1
    encoder         : Lavf58.29.100
    Stream #0:0: Video: h264 (libx264), 1 reference frame (avc1 / 0x31637661), yuv420p, 1920x1080 [SAR 1:1 DAR 16:9], q=-1--1, 30 fps, 15360 tbn, 30 tbc (default)
    Metadata:
      encoder         : Lavc58.54.100 libx264
    Side data:
      cpb: bitrate max/min/avg: 0/0/0 buffer size: 0 vbv_delay: -1
    Stream #0:1(und): Audio: aac (LC) (mp4a / 0x6134706D), 44100 Hz, stereo, fltp, delay 1024, 128 kb/s (default)
    Metadata:
      handler_name    : SoundHandler
      encoder         : Lavc58.54.100 aac
[Parsed_overlay_4 @ 0x5627135de380] [framesync @ 0x5627135de4e8] Sync level 0
No more output streams to write to, finishing.
frame= 1191 fps= 82 q=-1.0 Lsize=   72256kB time=00:00:39.68 bitrate=14916.3kbits/s speed=2.74x    
[AVIOContext @ 0x562712567b40] Statistics: 0 seeks, 28 writeouts
video:71560kB audio:653kB subtitle:0kB other streams:0kB global headers:0kB muxing overhead: 0.059327%
Input file #0 (/var/www/html/project/media/video/original/lv_0_20251021122734.mp4):
  Input stream #0:0 (video): 1191 packets read (47721764 bytes); 1191 frames decoded; 
  Input stream #0:1 (audio): 1711 packets read (995280 bytes); 1709 frames decoded (1750016 samples); 
  Total: 2902 packets (48717044 bytes) demuxed
Input file #1 (/var/www/html/project/static/images/templates/logo.png):
  Input stream #1:0 (video): 1 packets read (111578 bytes); 1 frames decoded; 
  Total: 1 packets (111578 bytes) demuxed
Output file #0 (/var/www/html/project/media/video/watermarks/lv_0_20251021122734.mp4):
  Output stream #0:0 (video): 1191 frames encoded; 1191 packets muxed (73277845 bytes); 
  Output stream #0:1 (audio): 1709 frames encoded (1750016 samples); 1710 packets muxed (668485 bytes); 
  Total: 2901 packets (73946330 bytes) muxed
[AVIOContext @ 0x5627125801c0] Statistics: 2 seeks, 286 writeouts
[libx264 @ 0x562712581f00] frame I:9     Avg QP:16.43  size:302532
[libx264 @ 0x562712581f00] frame P:371   Avg QP:20.02  size:119343
[libx264 @ 0x562712581f00] frame B:811   Avg QP:22.63  size: 32402
[libx264 @ 0x562712581f00] consecutive B-frames:  6.0%  6.5%  9.6% 77.9%
[libx264 @ 0x562712581f00] mb I  I16..4: 11.0% 18.2% 70.8%
[libx264 @ 0x562712581f00] mb P  I16..4:  6.1%  7.9%  3.7%  P16..4: 39.8% 21.1% 17.4%  0.0%  0.0%    skip: 3.9%
[libx264 @ 0x562712581f00] mb B  I16..4:  1.4%  1.1%  0.2%  B16..8: 29.0% 12.0%  2.6%  direct:18.8%  skip:34.9%  L0:36.3% L1:32.5% BI:31.3%
[libx264 @ 0x562712581f00] 8x8 transform intra:40.9% inter:55.6%
[libx264 @ 0x562712581f00] coded y,uvDC,uvAC intra: 57.3% 64.7% 20.8% inter: 32.2% 17.1% 1.5%
[libx264 @ 0x562712581f00] i16 v,h,dc,p: 46% 27% 23%  5%
[libx264 @ 0x562712581f00] i8 v,h,dc,ddl,ddr,vr,hd,vl,hu: 28% 22% 28%  3%  4%  5%  4%  4%  4%
[libx264 @ 0x562712581f00] i4 v,h,dc,ddl,ddr,vr,hd,vl,hu: 29% 21% 13%  5%  6%  6%  7%  5%  7%
[libx264 @ 0x562712581f00] i8c dc,h,v,p: 50% 24% 23%  4%
[libx264 @ 0x562712581f00] Weighted P-Frames: Y:5.4% UV:1.9%
[libx264 @ 0x562712581f00] kb/s:14766.18
[aac @ 0x5627125cc680] Qavg: 532.832
[AVIOContext @ 0x562712570ac0] Statistics: 48804083 bytes read, 2 seeks
[AVIOContext @ 0x56271257cf00] Statistics: 111578 bytes read, 0 seeks
